Coordinates
version=1
nRows=27
nColumns=12
inDegrees=yes

Units are S.I. units (second, meters, Newtons, ...)
Angles are in degrees

endheader
time	SC_y	SC_z	SC_x	AC_y	AC_z	AC_x	GH_y	GH_z	GH_yy	EL_x	PS_y
       0.0              -16.97          16.29           59.1          33.07         -5.838          6.356          82.79          75.82         -39.09          17.01          69.73
   0.03877              -16.97          16.29           59.1          33.08         -5.837          6.358          82.76          75.82         -39.09          17.01          69.74
   0.07754              -16.97          16.29           59.1          33.08         -5.835          6.359          82.74          75.81         -39.09          17.02          69.75
    0.1163              -16.97          16.29           59.1          33.08         -5.834          6.361          82.71          75.81         -39.09          17.02          69.75
    0.1551              -16.97           16.3           59.1          33.08         -5.832          6.363          82.68           75.8         -39.09          17.02          69.76
    0.1938              -16.97           16.3           59.1          33.08         -5.831          6.364          82.65           75.8         -39.09          17.03          69.77
    0.2326              -16.97           16.3           59.1          33.09         -5.829          6.366          82.62          75.79         -39.08          17.03          69.78
    0.2714              -16.97           16.3          59.11          33.09         -5.827          6.368          82.58          75.79         -39.08          17.04          69.79
    0.3101              -16.98           16.3          59.11          33.09         -5.825           6.37          82.55          75.78         -39.08          17.04           69.8
    0.3489              -16.98           16.3          59.11          33.09         -5.823          6.373          82.51          75.78         -39.08          17.05          69.81
    0.3877              -16.98           16.3          59.11           33.1         -5.821          6.375          82.46          75.77         -39.08          17.05          69.82
    0.4264              -16.98           16.3          59.11           33.1         -5.818          6.378          82.42          75.76         -39.07          17.06          69.83
    0.4652              -16.98           16.3          59.11           33.1         -5.816          6.381          82.37          75.75         -39.07          17.07          69.85
     0.504              -16.99           16.3          59.11          33.11         -5.813          6.384          82.31          75.75         -39.07          17.08          69.86
    0.5427              -16.99           16.3          59.11          33.11          -5.81          6.387          82.25          75.74         -39.06          17.09          69.88
    0.5815              -16.99           16.3          59.11          33.12         -5.807          6.391          82.19          75.73         -39.06          17.09          69.89
    0.6203              -16.99           16.3          59.11          33.12         -5.803          6.395          82.12          75.71         -39.05           17.1          69.91
    0.6591               -17.0          16.31          59.11          33.13         -5.799            6.4          82.04           75.7         -39.05          17.12          69.93
    0.6978               -17.0          16.31          59.11          33.13         -5.795          6.404          81.96          75.69         -39.04          17.13          69.95
    0.7366               -17.0          16.31          59.11          33.14          -5.79           6.41          81.87          75.68         -39.04          17.14          69.98
    0.7754              -17.01          16.31          59.11          33.14         -5.785          6.415          81.77          75.66         -39.03          17.15           70.0
    0.8141              -17.01          16.31          59.11          33.15         -5.779          6.422          81.66          75.64         -39.03          17.17          70.03
    0.8529              -17.02          16.31          59.11          33.16         -5.773          6.429          81.54          75.62         -39.02          17.19          70.06
    0.8917              -17.02          16.32          59.11          33.17         -5.766          6.436          81.41           75.6         -39.01          17.21           70.1
    0.9304              -17.03          16.32          59.12          33.18         -5.758          6.445          81.26          75.58          -39.0          17.23          70.14
    0.9692              -17.04          16.32          59.12          33.19         -5.749          6.454           81.1          75.55         -38.99          17.25          70.18
     1.008              -17.04          16.33          59.12           33.2          -5.74          6.465          80.91          75.52         -38.98          17.28          70.23
